<?xml version="1.0" encoding="UTF-8"?><svg xmlns="http://www.w3.org/2000/svg" xmlns:xlink="http://www.w3.org/1999/xlink" stroke-dasharray="none" shape-rendering="auto" font-family="'Dialog'" width="707" text-rendering="auto" fill-opacity="1" contentScriptType="text/ecmascript" color-interpolation="auto" color-rendering="auto" preserveAspectRatio="xMidYMid meet" font-size="12px" fill="black" stroke="black" image-rendering="auto" stroke-miterlimit="10" zoomAndPan="magnify" version="1.0" stroke-linecap="square" stroke-linejoin="miter" contentStyleType="text/css" font-style="normal" height="580" stroke-width="1" stroke-dashoffset="0" font-weight="normal" stroke-opacity="1">
    <!--Generated by the Batik Graphics2D SVG Generator-->
    <defs id="genericDefs"/>
    <g>
        <defs id="defs1">
            <clipPath clipPathUnits="userSpaceOnUse" id="clipPath1">
                <path d="M33 26 L687 26 L687 543 L33 543 L33 26 Z"/>
            </clipPath>
            <clipPath clipPathUnits="userSpaceOnUse" id="clipPath2">
                <path d="M-1 -1 L708 -1 L708 581 L-1 581 L-1 -1 Z"/>
            </clipPath>
            <clipPath clipPathUnits="userSpaceOnUse" id="clipPath3">
                <path d="M33 541 L687 541 L687 581 L33 581 L33 541 Z"/>
            </clipPath>
        </defs>
        <g font-size="13px" fill="white" text-rendering="optimizeLegibility" stroke-linejoin="round" stroke="white" stroke-width="0" stroke-miterlimit="0">
            <rect x="34" width="652" height="515" y="27" clip-path="url(#clipPath1)" stroke="none"/>
        </g>
        <g fill="rgb(204,204,204)" text-rendering="optimizeLegibility" font-size="13px" stroke-dasharray="3,3" stroke-linecap="butt" stroke="rgb(204,204,204)">
            <line y2="542" fill="none" x1="34" clip-path="url(#clipPath1)" x2="686" y1="542"/>
            <line y2="470" fill="none" x1="34" clip-path="url(#clipPath1)" x2="686" y1="470"/>
            <line y2="399" fill="none" x1="34" clip-path="url(#clipPath1)" x2="686" y1="399"/>
            <line y2="327" fill="none" x1="34" clip-path="url(#clipPath1)" x2="686" y1="327"/>
            <line y2="256" fill="none" x1="34" clip-path="url(#clipPath1)" x2="686" y1="256"/>
            <line y2="184" fill="none" x1="34" clip-path="url(#clipPath1)" x2="686" y1="184"/>
            <line y2="113" fill="none" x1="34" clip-path="url(#clipPath1)" x2="686" y1="113"/>
            <line y2="42" fill="none" x1="34" clip-path="url(#clipPath1)" x2="686" y1="42"/>
            <rect x="161" y="101" clip-path="url(#clipPath1)" fill="rgb(214,39,40)" width="23" height="440" stroke="none"/>
            <rect x="161" y="101" clip-path="url(#clipPath1)" fill="none" width="23" stroke-dasharray="none" height="440" stroke="black"/>
            <rect x="320" y="82" clip-path="url(#clipPath1)" fill="rgb(214,39,40)" width="23" stroke-dasharray="none" height="459" stroke="none"/>
            <rect x="320" y="82" clip-path="url(#clipPath1)" fill="none" width="23" stroke-dasharray="none" height="459" stroke="black"/>
            <rect x="480" y="115" clip-path="url(#clipPath1)" fill="rgb(214,39,40)" width="23" stroke-dasharray="none" height="426" stroke="none"/>
            <rect x="480" y="115" clip-path="url(#clipPath1)" fill="none" width="23" stroke-dasharray="none" height="426" stroke="black"/>
            <rect x="639" y="361" clip-path="url(#clipPath1)" fill="rgb(214,39,40)" width="23" stroke-dasharray="none" height="180" stroke="none"/>
            <rect x="639" y="361" clip-path="url(#clipPath1)" fill="none" width="23" stroke-dasharray="none" height="180" stroke="black"/>
            <rect x="126" y="140" clip-path="url(#clipPath1)" fill="rgb(44,160,44)" width="23" stroke-dasharray="none" height="401" stroke="none"/>
            <rect x="126" y="140" clip-path="url(#clipPath1)" fill="none" width="23" stroke-dasharray="none" height="401" stroke="black"/>
            <rect x="286" y="73" clip-path="url(#clipPath1)" fill="rgb(44,160,44)" width="23" stroke-dasharray="none" height="468" stroke="none"/>
            <rect x="286" y="73" clip-path="url(#clipPath1)" fill="none" width="23" stroke-dasharray="none" height="468" stroke="black"/>
            <rect x="445" y="126" clip-path="url(#clipPath1)" fill="rgb(44,160,44)" width="23" stroke-dasharray="none" height="415" stroke="none"/>
            <rect x="445" y="126" clip-path="url(#clipPath1)" fill="none" width="23" stroke-dasharray="none" height="415" stroke="black"/>
            <rect x="604" y="382" clip-path="url(#clipPath1)" fill="rgb(44,160,44)" width="23" stroke-dasharray="none" height="159" stroke="none"/>
            <rect x="604" y="382" clip-path="url(#clipPath1)" fill="none" width="23" stroke-dasharray="none" height="159" stroke="black"/>
            <rect x="91" y="119" clip-path="url(#clipPath1)" fill="rgb(255,127,14)" width="23" stroke-dasharray="none" height="422" stroke="none"/>
            <rect x="91" y="119" clip-path="url(#clipPath1)" fill="none" width="23" stroke-dasharray="none" height="422" stroke="black"/>
            <rect x="251" y="84" clip-path="url(#clipPath1)" fill="rgb(255,127,14)" width="23" stroke-dasharray="none" height="457" stroke="none"/>
            <rect x="251" y="84" clip-path="url(#clipPath1)" fill="none" width="23" stroke-dasharray="none" height="457" stroke="black"/>
            <rect x="410" y="121" clip-path="url(#clipPath1)" fill="rgb(255,127,14)" width="23" stroke-dasharray="none" height="420" stroke="none"/>
            <rect x="410" y="121" clip-path="url(#clipPath1)" fill="none" width="23" stroke-dasharray="none" height="420" stroke="black"/>
            <rect x="570" y="374" clip-path="url(#clipPath1)" fill="rgb(255,127,14)" width="23" stroke-dasharray="none" height="167" stroke="none"/>
            <rect x="570" y="374" clip-path="url(#clipPath1)" fill="none" width="23" stroke-dasharray="none" height="167" stroke="black"/>
            <rect x="57" y="117" clip-path="url(#clipPath1)" fill="rgb(31,119,180)" width="23" stroke-dasharray="none" height="424" stroke="none"/>
            <rect x="57" y="117" clip-path="url(#clipPath1)" fill="none" width="23" stroke-dasharray="none" height="424" stroke="black"/>
            <rect x="216" y="76" clip-path="url(#clipPath1)" fill="rgb(31,119,180)" width="23" stroke-dasharray="none" height="465" stroke="none"/>
            <rect x="216" y="76" clip-path="url(#clipPath1)" fill="none" width="23" stroke-dasharray="none" height="465" stroke="black"/>
            <rect x="375" y="108" clip-path="url(#clipPath1)" fill="rgb(31,119,180)" width="23" stroke-dasharray="none" height="433" stroke="none"/>
            <rect x="375" y="108" clip-path="url(#clipPath1)" fill="none" width="23" stroke-dasharray="none" height="433" stroke="black"/>
            <rect x="535" y="381" clip-path="url(#clipPath1)" fill="rgb(31,119,180)" width="23" stroke-dasharray="none" height="160" stroke="none"/>
            <rect x="535" y="381" clip-path="url(#clipPath1)" fill="none" width="23" stroke-dasharray="none" height="160" stroke="black"/>
            <rect x="34" y="27" clip-path="url(#clipPath2)" fill="none" width="652" stroke-dasharray="none" height="515" stroke="black"/>
            <line clip-path="url(#clipPath2)" fill="none" x1="35" x2="685" y1="542" y2="542" stroke-dasharray="none"/>
            <text x="260" y="13" clip-path="url(#clipPath2)" fill="black" stroke-dasharray="none" stroke="none" xml:space="preserve">RXPowerConsumptionB-MAC</text>
        </g>
        <g stroke-linecap="butt" font-size="10px" text-rendering="optimizeLegibility">
            <line y2="542" fill="none" x1="32" clip-path="url(#clipPath2)" x2="32" y1="27"/>
            <line y2="542" fill="none" x1="688" clip-path="url(#clipPath2)" x2="688" y1="27"/>
            <line y2="542" fill="none" x1="28" clip-path="url(#clipPath2)" x2="32" y1="542"/>
            <line y2="542" fill="none" x1="692" clip-path="url(#clipPath2)" x2="688" y1="542"/>
            <text x="20" xml:space="preserve" y="546" clip-path="url(#clipPath2)" stroke="none">0</text>
            <text x="695" xml:space="preserve" y="546" clip-path="url(#clipPath2)" stroke="none">0</text>
            <line y2="527" fill="none" x1="30" clip-path="url(#clipPath2)" x2="32" y1="527"/>
            <line y2="527" fill="none" x1="690" clip-path="url(#clipPath2)" x2="688" y1="527"/>
            <line y2="513" fill="none" x1="30" clip-path="url(#clipPath2)" x2="32" y1="513"/>
            <line y2="513" fill="none" x1="690" clip-path="url(#clipPath2)" x2="688" y1="513"/>
            <line y2="499" fill="none" x1="30" clip-path="url(#clipPath2)" x2="32" y1="499"/>
            <line y2="499" fill="none" x1="690" clip-path="url(#clipPath2)" x2="688" y1="499"/>
            <line y2="484" fill="none" x1="30" clip-path="url(#clipPath2)" x2="32" y1="484"/>
            <line y2="484" fill="none" x1="690" clip-path="url(#clipPath2)" x2="688" y1="484"/>
            <line y2="470" fill="none" x1="28" clip-path="url(#clipPath2)" x2="32" y1="470"/>
            <line y2="470" fill="none" x1="692" clip-path="url(#clipPath2)" x2="688" y1="470"/>
            <text x="20" xml:space="preserve" y="474" clip-path="url(#clipPath2)" stroke="none">1</text>
            <text x="695" xml:space="preserve" y="474" clip-path="url(#clipPath2)" stroke="none">1</text>
            <line y2="456" fill="none" x1="30" clip-path="url(#clipPath2)" x2="32" y1="456"/>
            <line y2="456" fill="none" x1="690" clip-path="url(#clipPath2)" x2="688" y1="456"/>
            <line y2="442" fill="none" x1="30" clip-path="url(#clipPath2)" x2="32" y1="442"/>
            <line y2="442" fill="none" x1="690" clip-path="url(#clipPath2)" x2="688" y1="442"/>
            <line y2="427" fill="none" x1="30" clip-path="url(#clipPath2)" x2="32" y1="427"/>
            <line y2="427" fill="none" x1="690" clip-path="url(#clipPath2)" x2="688" y1="427"/>
            <line y2="413" fill="none" x1="30" clip-path="url(#clipPath2)" x2="32" y1="413"/>
            <line y2="413" fill="none" x1="690" clip-path="url(#clipPath2)" x2="688" y1="413"/>
            <line y2="399" fill="none" x1="28" clip-path="url(#clipPath2)" x2="32" y1="399"/>
            <line y2="399" fill="none" x1="692" clip-path="url(#clipPath2)" x2="688" y1="399"/>
            <text x="20" xml:space="preserve" y="403" clip-path="url(#clipPath2)" stroke="none">2</text>
            <text x="695" xml:space="preserve" y="403" clip-path="url(#clipPath2)" stroke="none">2</text>
            <line y2="384" fill="none" x1="30" clip-path="url(#clipPath2)" x2="32" y1="384"/>
            <line y2="384" fill="none" x1="690" clip-path="url(#clipPath2)" x2="688" y1="384"/>
            <line y2="370" fill="none" x1="30" clip-path="url(#clipPath2)" x2="32" y1="370"/>
            <line y2="370" fill="none" x1="690" clip-path="url(#clipPath2)" x2="688" y1="370"/>
            <line y2="356" fill="none" x1="30" clip-path="url(#clipPath2)" x2="32" y1="356"/>
            <line y2="356" fill="none" x1="690" clip-path="url(#clipPath2)" x2="688" y1="356"/>
            <line y2="342" fill="none" x1="30" clip-path="url(#clipPath2)" x2="32" y1="342"/>
            <line y2="342" fill="none" x1="690" clip-path="url(#clipPath2)" x2="688" y1="342"/>
            <line y2="327" fill="none" x1="28" clip-path="url(#clipPath2)" x2="32" y1="327"/>
            <line y2="327" fill="none" x1="692" clip-path="url(#clipPath2)" x2="688" y1="327"/>
            <text x="20" xml:space="preserve" y="331" clip-path="url(#clipPath2)" stroke="none">3</text>
            <text x="695" xml:space="preserve" y="331" clip-path="url(#clipPath2)" stroke="none">3</text>
            <line y2="313" fill="none" x1="30" clip-path="url(#clipPath2)" x2="32" y1="313"/>
            <line y2="313" fill="none" x1="690" clip-path="url(#clipPath2)" x2="688" y1="313"/>
            <line y2="299" fill="none" x1="30" clip-path="url(#clipPath2)" x2="32" y1="299"/>
            <line y2="299" fill="none" x1="690" clip-path="url(#clipPath2)" x2="688" y1="299"/>
            <line y2="284" fill="none" x1="30" clip-path="url(#clipPath2)" x2="32" y1="284"/>
            <line y2="284" fill="none" x1="690" clip-path="url(#clipPath2)" x2="688" y1="284"/>
            <line y2="270" fill="none" x1="30" clip-path="url(#clipPath2)" x2="32" y1="270"/>
            <line y2="270" fill="none" x1="690" clip-path="url(#clipPath2)" x2="688" y1="270"/>
            <line y2="256" fill="none" x1="28" clip-path="url(#clipPath2)" x2="32" y1="256"/>
            <line y2="256" fill="none" x1="692" clip-path="url(#clipPath2)" x2="688" y1="256"/>
            <text x="20" xml:space="preserve" y="260" clip-path="url(#clipPath2)" stroke="none">4</text>
            <text x="695" xml:space="preserve" y="260" clip-path="url(#clipPath2)" stroke="none">4</text>
            <line y2="242" fill="none" x1="30" clip-path="url(#clipPath2)" x2="32" y1="242"/>
            <line y2="242" fill="none" x1="690" clip-path="url(#clipPath2)" x2="688" y1="242"/>
            <line y2="227" fill="none" x1="30" clip-path="url(#clipPath2)" x2="32" y1="227"/>
            <line y2="227" fill="none" x1="690" clip-path="url(#clipPath2)" x2="688" y1="227"/>
            <line y2="213" fill="none" x1="30" clip-path="url(#clipPath2)" x2="32" y1="213"/>
            <line y2="213" fill="none" x1="690" clip-path="url(#clipPath2)" x2="688" y1="213"/>
            <line y2="199" fill="none" x1="30" clip-path="url(#clipPath2)" x2="32" y1="199"/>
            <line y2="199" fill="none" x1="690" clip-path="url(#clipPath2)" x2="688" y1="199"/>
            <line y2="184" fill="none" x1="28" clip-path="url(#clipPath2)" x2="32" y1="184"/>
            <line y2="184" fill="none" x1="692" clip-path="url(#clipPath2)" x2="688" y1="184"/>
            <text x="20" xml:space="preserve" y="188" clip-path="url(#clipPath2)" stroke="none">5</text>
            <text x="695" xml:space="preserve" y="188" clip-path="url(#clipPath2)" stroke="none">5</text>
            <line y2="170" fill="none" x1="30" clip-path="url(#clipPath2)" x2="32" y1="170"/>
            <line y2="170" fill="none" x1="690" clip-path="url(#clipPath2)" x2="688" y1="170"/>
            <line y2="156" fill="none" x1="30" clip-path="url(#clipPath2)" x2="32" y1="156"/>
            <line y2="156" fill="none" x1="690" clip-path="url(#clipPath2)" x2="688" y1="156"/>
            <line y2="142" fill="none" x1="30" clip-path="url(#clipPath2)" x2="32" y1="142"/>
            <line y2="142" fill="none" x1="690" clip-path="url(#clipPath2)" x2="688" y1="142"/>
            <line y2="127" fill="none" x1="30" clip-path="url(#clipPath2)" x2="32" y1="127"/>
            <line y2="127" fill="none" x1="690" clip-path="url(#clipPath2)" x2="688" y1="127"/>
            <line y2="113" fill="none" x1="28" clip-path="url(#clipPath2)" x2="32" y1="113"/>
            <line y2="113" fill="none" x1="692" clip-path="url(#clipPath2)" x2="688" y1="113"/>
            <text x="20" xml:space="preserve" y="117" clip-path="url(#clipPath2)" stroke="none">6</text>
            <text x="695" xml:space="preserve" y="117" clip-path="url(#clipPath2)" stroke="none">6</text>
            <line y2="99" fill="none" x1="30" clip-path="url(#clipPath2)" x2="32" y1="99"/>
            <line y2="99" fill="none" x1="690" clip-path="url(#clipPath2)" x2="688" y1="99"/>
            <line y2="84" fill="none" x1="30" clip-path="url(#clipPath2)" x2="32" y1="84"/>
            <line y2="84" fill="none" x1="690" clip-path="url(#clipPath2)" x2="688" y1="84"/>
            <line y2="70" fill="none" x1="30" clip-path="url(#clipPath2)" x2="32" y1="70"/>
            <line y2="70" fill="none" x1="690" clip-path="url(#clipPath2)" x2="688" y1="70"/>
            <line y2="56" fill="none" x1="30" clip-path="url(#clipPath2)" x2="32" y1="56"/>
            <line y2="56" fill="none" x1="690" clip-path="url(#clipPath2)" x2="688" y1="56"/>
            <line y2="42" fill="none" x1="28" clip-path="url(#clipPath2)" x2="32" y1="42"/>
            <line y2="42" fill="none" x1="692" clip-path="url(#clipPath2)" x2="688" y1="42"/>
            <text x="20" xml:space="preserve" y="46" clip-path="url(#clipPath2)" stroke="none">7</text>
            <text x="695" xml:space="preserve" y="46" clip-path="url(#clipPath2)" stroke="none">7</text>
            <line y2="27" fill="none" x1="30" clip-path="url(#clipPath2)" x2="32" y1="27"/>
            <line y2="27" fill="none" x1="690" clip-path="url(#clipPath2)" x2="688" y1="27"/>
            <line y2="546" fill="none" x1="57" clip-path="url(#clipPath3)" x2="184" y1="546"/>
            <line y2="546" fill="none" x1="216" clip-path="url(#clipPath3)" x2="343" y1="546"/>
            <line y2="546" fill="none" x1="375" clip-path="url(#clipPath3)" x2="503" y1="546"/>
            <line y2="546" fill="none" x1="535" clip-path="url(#clipPath3)" x2="662" y1="546"/>
            <text x="-13" xml:space="preserve" y="557" clip-path="url(#clipPath3)" stroke="none">Attacco_Aggressivo</text>
            <text x="147" xml:space="preserve" y="557" clip-path="url(#clipPath3)" stroke="none">Attacco_Burst</text>
            <text x="306" xml:space="preserve" y="557" clip-path="url(#clipPath3)" stroke="none">Attacco_Silenzioso</text>
            <text x="465" xml:space="preserve" y="557" clip-path="url(#clipPath3)" stroke="none">safe</text>
            <text x="330" xml:space="preserve" y="577" clip-path="url(#clipPath3)" stroke="none">configname</text>
        </g>
    </g>
</svg>
